<svg xmlns="http://www.w3.org/2000/svg" version="1.1" xmlns:xlink="http://www.w3.org/1999/xlink" xmlns:svgjs="http://svgjs.dev/svgjs" viewBox="0 0 244 244"><g transform="matrix(1,0,0,1,-0.6060605949616615,0.4033057337527026)"><svg viewBox="0 0 396 97" data-background-color="#ed2647" preserveAspectRatio="xMidYMid meet" height="244" width="1000" xmlns="http://www.w3.org/2000/svg" xmlns:xlink="http://www.w3.org/1999/xlink"><g id="tight-bounds" transform="matrix(1,0,0,1,0.2399999956048191,-0.16033011567046174)"><svg viewBox="0 0 395.52 97.32065280952386" height="97.32065280952386" width="395.52"><g><svg viewBox="0 0 540.5091678734822 132.99632146788989" height="97.32065280952386" width="395.52"><g transform="matrix(1,0,0,1,144.98916787348222,41.097793761467884)"><svg viewBox="0 0 395.52 50.800733944954125" height="50.800733944954125" width="395.52"><g id="textblocktransform"><svg viewBox="0 0 395.52 50.800733944954125" height="50.800733944954125" width="395.52" id="textblock"><g><svg viewBox="0 0 395.52 50.800733944954125" height="50.800733944954125" width="395.52"><g transform="matrix(1,0,0,1,0,0)"><svg width="395.52" viewBox="1.5099999904632568 -38.720001220703125 314 40.33000183105469" height="50.800733944954125" data-palette-color="#8d021f">

</svg></g></svg></g></svg></g></svg></g><g><svg viewBox="0 0 132.99633380669323 132.99632146788989" height="132.99632146788989" width="132.99633380669323"><g><svg xmlns="http://www.w3.org/2000/svg" xmlns:xlink="http://www.w3.org/1999/xlink" version="1.1" x="0" y="0" viewBox="8.882999420166016 8.883000373840332 82.23500061035156 82.23499298095703" enable-background="new 0 0 100 100" xml:space="preserve" height="132.99632146788989" width="132.99633380669323" class="icon-icon-0" data-fill-palette-color="accent" id="icon-0"><g fill="#5e1914" data-fill-palette-color="accent"><polygon fill="none" points="62.873,41.245 58.475,48.867 41.526,48.867 37.126,41.245 27.018,41.245 21.963,50 27.018,58.754    37.126,58.754 41.526,51.133 58.475,51.133 62.873,58.754 72.982,58.754 78.037,50 72.982,41.245  "></polygon><path d="M87.1 40.302l-3.945-3.946H62.65l-6.041 10.462H43.39l-6.609-11.447 6.609-11.448h13.219l6.041 10.462h18.533L59.697 12.9C57.105 10.31 53.664 8.883 50 8.883c-3.664 0-7.108 1.426-9.698 4.017L12.9 40.302c-2.59 2.59-4.017 6.034-4.017 9.697 0 3.665 1.427 7.106 4.017 9.698l4.338 4.338H37.35l6.04-10.461h13.219l6.609 11.447-6.609 11.449H43.39l-6.04-10.465H19.209L40.302 87.1c2.59 2.59 6.034 4.018 9.698 4.018 3.662 0 7.105-1.428 9.697-4.018L87.1 59.697c2.59-2.592 4.018-6.035 4.018-9.698C91.117 46.336 89.689 42.893 87.1 40.302zM72.982 58.754H62.873l-4.398-7.621H41.526l-4.399 7.621H27.018L21.963 50l5.054-8.754h10.109l4.399 7.622h16.949l4.398-7.622h10.109L78.037 50 72.982 58.754z" fill="#5e1914" data-fill-palette-color="accent"></path><polygon points="54.563,72.924 59.125,65.021 54.563,57.121 45.438,57.121 40.876,65.021 45.438,72.924  " fill="#5e1914" data-fill-palette-color="accent"></polygon><polygon points="45.438,27.469 40.876,35.371 45.438,43.272 54.563,43.272 59.125,35.371 54.563,27.469  " fill="#5e1914" data-fill-palette-color="accent"></polygon></g></svg></g></svg></g></svg></g><defs></defs></svg><rect width="395.52" height="97.32065280952386" fill="none" stroke="none" visibility="hidden"></rect></g></svg></g></svg>